<svg xmlns="http://www.w3.org/2000/svg" width="850" height="120"><rect x="0" y="0" width="12" height="12" fill="#ebedf0" rx="2" ry="2"><title>2024-12-29: 0</title></rect><rect x="0" y="15" width="12" height="12" fill="#ebedf0" rx="2" ry="2"><title>2024-12-30: 0</title></rect><rect x="0" y="30" width="12" height="12" fill="#ebedf0" rx="2" ry="2"><title>2024-12-31: 0</title></rect><rect x="0" y="45" width="12" height="12" fill="#ebedf0" rx="2" ry="2"><title>2025-01-01: 0</title></rect><rect x="0" y="60" width="12" height="12" fill="#ebedf0" rx="2" ry="2"><title>2025-01-02: 0</title></rect><rect x="0" y="75" width="12" height="12" fill="#ebedf0" rx="2" ry="2"><title>2025-01-03: 0</title></rect><rect x="0" y="90" width="12" height="12" fill="#ebedf0" rx="2" ry="2"><title>2025-01-04: 0</title></rect><rect x="15" y="0" width="12" height="12" fill="#ebedf0" rx="2" ry="2"><title>2025-01-05: 0</title></rect><rect x="15" y="15" width="12" height="12" fill="#ebedf0" rx="2" ry="2"><title>2025-01-06: 0</title></rect><rect x="15" y="30" width="12" height="12" fill="#ebedf0" rx="2" ry="2"><title>2025-01-07: 0</title></rect><rect x="15" y="45" width="12" height="12" fill="#ebedf0" rx="2" ry="2"><title>2025-01-08: 0</title></rect><rect x="15" y="60" width="12" height="12" fill="#ebedf0" rx="2" ry="2"><title>2025-01-09: 0</title></rect><rect x="15" y="75" width="12" height="12" fill="#ebedf0" rx="2" ry="2"><title>2025-01-10: 0</title></rect><rect x="15" y="90" width="12" height="12" fill="#ebedf0" rx="2" ry="2"><title>2025-01-11: 0</title></rect><rect x="30" y="0" width="12" height="12" fill="#ebedf0" rx="2" ry="2"><title>2025-01-12: 0</title></rect><rect x="30" y="15" width="12" height="12" fill="#ebedf0" rx="2" ry="2"><title>2025-01-13: 0</title></rect><rect x="30" y="30" width="12" height="12" fill="#ebedf0" rx="2" ry="2"><title>2025-01-14: 0</title></rect><rect x="30" y="45" width="12" height="12" fill="#ebedf0" rx="2" ry="2"><title>2025-01-15: 0</title></rect><rect x="30" y="60" width="12" height="12" fill="#ebedf0" rx="2" ry="2"><title>2025-01-16: 0</title></rect><rect x="30" y="75" width="12" height="12" fill="#ebedf0" rx="2" ry="2"><title>2025-01-17: 0</title></rect><rect x="30" y="90" width="12" height="12" fill="#ebedf0" rx="2" ry="2"><title>2025-01-18: 0</title></rect><rect x="45" y="0" width="12" height="12" fill="#ebedf0" rx="2" ry="2"><title>2025-01-19: 0</title></rect><rect x="45" y="15" width="12" height="12" fill="#ebedf0" rx="2" ry="2"><title>2025-01-20: 0</title></rect><rect x="45" y="30" width="12" height="12" fill="#ebedf0" rx="2" ry="2"><title>2025-01-21: 0</title></rect><rect x="45" y="45" width="12" height="12" fill="#ebedf0" rx="2" ry="2"><title>2025-01-22: 0</title></rect><rect x="45" y="60" width="12" height="12" fill="#ebedf0" rx="2" ry="2"><title>2025-01-23: 0</title></rect><rect x="45" y="75" width="12" height="12" fill="#ebedf0" rx="2" ry="2"><title>2025-01-24: 0</title></rect><rect x="45" y="90" width="12" height="12" fill="#ebedf0" rx="2" ry="2"><title>2025-01-25: 0</title></rect><rect x="60" y="0" width="12" height="12" fill="#ebedf0" rx="2" ry="2"><title>2025-01-26: 0</title></rect><rect x="60" y="15" width="12" height="12" fill="#ebedf0" rx="2" ry="2"><title>2025-01-27: 0</title></rect><rect x="60" y="30" width="12" height="12" fill="#ebedf0" rx="2" ry="2"><title>2025-01-28: 0</title></rect><rect x="60" y="45" width="12" height="12" fill="#ebedf0" rx="2" ry="2"><title>2025-01-29: 0</title></rect><rect x="60" y="60" width="12" height="12" fill="#ebedf0" rx="2" ry="2"><title>2025-01-30: 0</title></rect><rect x="60" y="75" width="12" height="12" fill="#ebedf0" rx="2" ry="2"><title>2025-01-31: 0</title></rect><rect x="60" y="90" width="12" height="12" fill="#ebedf0" rx="2" ry="2"><title>2025-02-01: 0</title></rect><rect x="75" y="0" width="12" height="12" fill="#ebedf0" rx="2" ry="2"><title>2025-02-02: 0</title></rect><rect x="75" y="15" width="12" height="12" fill="#ebedf0" rx="2" ry="2"><title>2025-02-03: 0</title></rect><rect x="75" y="30" width="12" height="12" fill="#ebedf0" rx="2" ry="2"><title>2025-02-04: 0</title></rect><rect x="75" y="45" width="12" height="12" fill="#ebedf0" rx="2" ry="2"><title>2025-02-05: 0</title></rect><rect x="75" y="60" width="12" height="12" fill="#ebedf0" rx="2" ry="2"><title>2025-02-06: 0</title></rect><rect x="75" y="75" width="12" height="12" fill="#9be9a8" rx="2" ry="2"><title>2025-02-07: 5</title></rect><rect x="75" y="90" width="12" height="12" fill="#ebedf0" rx="2" ry="2"><title>2025-02-08: 0</title></rect><rect x="90" y="0" width="12" height="12" fill="#ebedf0" rx="2" ry="2"><title>2025-02-09: 0</title></rect><rect x="90" y="15" width="12" height="12" fill="#ebedf0" rx="2" ry="2"><title>2025-02-10: 0</title></rect><rect x="90" y="30" width="12" height="12" fill="#ebedf0" rx="2" ry="2"><title>2025-02-11: 0</title></rect><rect x="90" y="45" width="12" height="12" fill="#ebedf0" rx="2" ry="2"><title>2025-02-12: 0</title></rect><rect x="90" y="60" width="12" height="12" fill="#40c463" rx="2" ry="2"><title>2025-02-13: 7</title></rect><rect x="90" y="75" width="12" height="12" fill="#ebedf0" rx="2" ry="2"><title>2025-02-14: 0</title></rect><rect x="90" y="90" width="12" height="12" fill="#ebedf0" rx="2" ry="2"><title>2025-02-15: 0</title></rect><rect x="105" y="0" width="12" height="12" fill="#ebedf0" rx="2" ry="2"><title>2025-02-16: 0</title></rect><rect x="105" y="15" width="12" height="12" fill="#ebedf0" rx="2" ry="2"><title>2025-02-17: 0</title></rect><rect x="105" y="30" width="12" height="12" fill="#ebedf0" rx="2" ry="2"><title>2025-02-18: 0</title></rect><rect x="105" y="45" width="12" height="12" fill="#ebedf0" rx="2" ry="2"><title>2025-02-19: 0</title></rect><rect x="105" y="60" width="12" height="12" fill="#ebedf0" rx="2" ry="2"><title>2025-02-20: 0</title></rect><rect x="105" y="75" width="12" height="12" fill="#ebedf0" rx="2" ry="2"><title>2025-02-21: 0</title></rect><rect x="105" y="90" width="12" height="12" fill="#ebedf0" rx="2" ry="2"><title>2025-02-22: 0</title></rect><rect x="120" y="0" width="12" height="12" fill="#ebedf0" rx="2" ry="2"><title>2025-02-23: 0</title></rect><rect x="120" y="15" width="12" height="12" fill="#ebedf0" rx="2" ry="2"><title>2025-02-24: 0</title></rect><rect x="120" y="30" width="12" height="12" fill="#ebedf0" rx="2" ry="2"><title>2025-02-25: 0</title></rect><rect x="120" y="45" width="12" height="12" fill="#ebedf0" rx="2" ry="2"><title>2025-02-26: 0</title></rect><rect x="120" y="60" width="12" height="12" fill="#40c463" rx="2" ry="2"><title>2025-02-27: 10</title></rect><rect x="120" y="75" width="12" height="12" fill="#9be9a8" rx="2" ry="2"><title>2025-02-28: 2</title></rect><rect x="120" y="90" width="12" height="12" fill="#ebedf0" rx="2" ry="2"><title>2025-03-01: 0</title></rect><rect x="135" y="0" width="12" height="12" fill="#ebedf0" rx="2" ry="2"><title>2025-03-02: 0</title></rect><rect x="135" y="15" width="12" height="12" fill="#9be9a8" rx="2" ry="2"><title>2025-03-03: 2</title></rect><rect x="135" y="30" width="12" height="12" fill="#30a14e" rx="2" ry="2"><title>2025-03-04: 14</title></rect><rect x="135" y="45" width="12" height="12" fill="#40c463" rx="2" ry="2"><title>2025-03-05: 7</title></rect><rect x="135" y="60" width="12" height="12" fill="#9be9a8" rx="2" ry="2"><title>2025-03-06: 3</title></rect><rect x="135" y="75" width="12" height="12" fill="#216e39" rx="2" ry="2"><title>2025-03-07: 36</title></rect><rect x="135" y="90" width="12" height="12" fill="#9be9a8" rx="2" ry="2"><title>2025-03-08: 1</title></rect><rect x="150" y="0" width="12" height="12" fill="#ebedf0" rx="2" ry="2"><title>2025-03-09: 0</title></rect><rect x="150" y="15" width="12" height="12" fill="#40c463" rx="2" ry="2"><title>2025-03-10: 10</title></rect><rect x="150" y="30" width="12" height="12" fill="#216e39" rx="2" ry="2"><title>2025-03-11: 33</title></rect><rect x="150" y="45" width="12" height="12" fill="#216e39" rx="2" ry="2"><title>2025-03-12: 19</title></rect><rect x="150" y="60" width="12" height="12" fill="#ebedf0" rx="2" ry="2"><title>2025-03-13: 0</title></rect><rect x="150" y="75" width="12" height="12" fill="#9be9a8" rx="2" ry="2"><title>2025-03-14: 1</title></rect><rect x="150" y="90" width="12" height="12" fill="#ebedf0" rx="2" ry="2"><title>2025-03-15: 0</title></rect><rect x="165" y="0" width="12" height="12" fill="#ebedf0" rx="2" ry="2"><title>2025-03-16: 0</title></rect><rect x="165" y="15" width="12" height="12" fill="#9be9a8" rx="2" ry="2"><title>2025-03-17: 1</title></rect><rect x="165" y="30" width="12" height="12" fill="#40c463" rx="2" ry="2"><title>2025-03-18: 6</title></rect><rect x="165" y="45" width="12" height="12" fill="#9be9a8" rx="2" ry="2"><title>2025-03-19: 1</title></rect><rect x="165" y="60" width="12" height="12" fill="#9be9a8" rx="2" ry="2"><title>2025-03-20: 2</title></rect><rect x="165" y="75" width="12" height="12" fill="#ebedf0" rx="2" ry="2"><title>2025-03-21: 0</title></rect><rect x="165" y="90" width="12" height="12" fill="#ebedf0" rx="2" ry="2"><title>2025-03-22: 0</title></rect><rect x="180" y="0" width="12" height="12" fill="#ebedf0" rx="2" ry="2"><title>2025-03-23: 0</title></rect><rect x="180" y="15" width="12" height="12" fill="#9be9a8" rx="2" ry="2"><title>2025-03-24: 3</title></rect><rect x="180" y="30" width="12" height="12" fill="#ebedf0" rx="2" ry="2"><title>2025-03-25: 0</title></rect><rect x="180" y="45" width="12" height="12" fill="#40c463" rx="2" ry="2"><title>2025-03-26: 10</title></rect><rect x="180" y="60" width="12" height="12" fill="#9be9a8" rx="2" ry="2"><title>2025-03-27: 2</title></rect><rect x="180" y="75" width="12" height="12" fill="#216e39" rx="2" ry="2"><title>2025-03-28: 19</title></rect><rect x="180" y="90" width="12" height="12" fill="#ebedf0" rx="2" ry="2"><title>2025-03-29: 0</title></rect><rect x="195" y="0" width="12" height="12" fill="#ebedf0" rx="2" ry="2"><title>2025-03-30: 0</title></rect><rect x="195" y="15" width="12" height="12" fill="#216e39" rx="2" ry="2"><title>2025-03-31: 35</title></rect><rect x="195" y="30" width="12" height="12" fill="#9be9a8" rx="2" ry="2"><title>2025-04-01: 2</title></rect><rect x="195" y="45" width="12" height="12" fill="#ebedf0" rx="2" ry="2"><title>2025-04-02: 0</title></rect><rect x="195" y="60" width="12" height="12" fill="#ebedf0" rx="2" ry="2"><title>2025-04-03: 0</title></rect><rect x="195" y="75" width="12" height="12" fill="#ebedf0" rx="2" ry="2"><title>2025-04-04: 0</title></rect><rect x="195" y="90" width="12" height="12" fill="#ebedf0" rx="2" ry="2"><title>2025-04-05: 0</title></rect><rect x="210" y="0" width="12" height="12" fill="#ebedf0" rx="2" ry="2"><title>2025-04-06: 0</title></rect><rect x="210" y="15" width="12" height="12" fill="#30a14e" rx="2" ry="2"><title>2025-04-07: 14</title></rect><rect x="210" y="30" width="12" height="12" fill="#ebedf0" rx="2" ry="2"><title>2025-04-08: 0</title></rect><rect x="210" y="45" width="12" height="12" fill="#216e39" rx="2" ry="2"><title>2025-04-09: 17</title></rect><rect x="210" y="60" width="12" height="12" fill="#ebedf0" rx="2" ry="2"><title>2025-04-10: 0</title></rect><rect x="210" y="75" width="12" height="12" fill="#9be9a8" rx="2" ry="2"><title>2025-04-11: 1</title></rect><rect x="210" y="90" width="12" height="12" fill="#ebedf0" rx="2" ry="2"><title>2025-04-12: 0</title></rect><rect x="225" y="0" width="12" height="12" fill="#ebedf0" rx="2" ry="2"><title>2025-04-13: 0</title></rect><rect x="225" y="15" width="12" height="12" fill="#9be9a8" rx="2" ry="2"><title>2025-04-14: 4</title></rect><rect x="225" y="30" width="12" height="12" fill="#ebedf0" rx="2" ry="2"><title>2025-04-15: 0</title></rect><rect x="225" y="45" width="12" height="12" fill="#ebedf0" rx="2" ry="2"><title>2025-04-16: 0</title></rect><rect x="225" y="60" width="12" height="12" fill="#ebedf0" rx="2" ry="2"><title>2025-04-17: 0</title></rect><rect x="225" y="75" width="12" height="12" fill="#ebedf0" rx="2" ry="2"><title>2025-04-18: 0</title></rect><rect x="225" y="90" width="12" height="12" fill="#ebedf0" rx="2" ry="2"><title>2025-04-19: 0</title></rect><rect x="240" y="0" width="12" height="12" fill="#ebedf0" rx="2" ry="2"><title>2025-04-20: 0</title></rect><rect x="240" y="15" width="12" height="12" fill="#ebedf0" rx="2" ry="2"><title>2025-04-21: 0</title></rect><rect x="240" y="30" width="12" height="12" fill="#ebedf0" rx="2" ry="2"><title>2025-04-22: 0</title></rect><rect x="240" y="45" width="12" height="12" fill="#ebedf0" rx="2" ry="2"><title>2025-04-23: 0</title></rect><rect x="240" y="60" width="12" height="12" fill="#ebedf0" rx="2" ry="2"><title>2025-04-24: 0</title></rect><rect x="240" y="75" width="12" height="12" fill="#ebedf0" rx="2" ry="2"><title>2025-04-25: 0</title></rect><rect x="240" y="90" width="12" height="12" fill="#ebedf0" rx="2" ry="2"><title>2025-04-26: 0</title></rect><rect x="255" y="0" width="12" height="12" fill="#ebedf0" rx="2" ry="2"><title>2025-04-27: 0</title></rect><rect x="255" y="15" width="12" height="12" fill="#ebedf0" rx="2" ry="2"><title>2025-04-28: 0</title></rect><rect x="255" y="30" width="12" height="12" fill="#ebedf0" rx="2" ry="2"><title>2025-04-29: 0</title></rect><rect x="255" y="45" width="12" height="12" fill="#ebedf0" rx="2" ry="2"><title>2025-04-30: 0</title></rect><rect x="255" y="60" width="12" height="12" fill="#9be9a8" rx="2" ry="2"><title>2025-05-01: 2</title></rect><rect x="255" y="75" width="12" height="12" fill="#ebedf0" rx="2" ry="2"><title>2025-05-02: 0</title></rect><rect x="255" y="90" width="12" height="12" fill="#ebedf0" rx="2" ry="2"><title>2025-05-03: 0</title></rect><rect x="270" y="0" width="12" height="12" fill="#ebedf0" rx="2" ry="2"><title>2025-05-04: 0</title></rect><rect x="270" y="15" width="12" height="12" fill="#9be9a8" rx="2" ry="2"><title>2025-05-05: 1</title></rect><rect x="270" y="30" width="12" height="12" fill="#ebedf0" rx="2" ry="2"><title>2025-05-06: 0</title></rect><rect x="270" y="45" width="12" height="12" fill="#ebedf0" rx="2" ry="2"><title>2025-05-07: 0</title></rect><rect x="270" y="60" width="12" height="12" fill="#ebedf0" rx="2" ry="2"><title>2025-05-08: 0</title></rect><rect x="270" y="75" width="12" height="12" fill="#ebedf0" rx="2" ry="2"><title>2025-05-09: 0</title></rect><rect x="270" y="90" width="12" height="12" fill="#ebedf0" rx="2" ry="2"><title>2025-05-10: 0</title></rect><rect x="285" y="0" width="12" height="12" fill="#ebedf0" rx="2" ry="2"><title>2025-05-11: 0</title></rect><rect x="285" y="15" width="12" height="12" fill="#ebedf0" rx="2" ry="2"><title>2025-05-12: 0</title></rect><rect x="285" y="30" width="12" height="12" fill="#ebedf0" rx="2" ry="2"><title>2025-05-13: 0</title></rect><rect x="285" y="45" width="12" height="12" fill="#ebedf0" rx="2" ry="2"><title>2025-05-14: 0</title></rect><rect x="285" y="60" width="12" height="12" fill="#ebedf0" rx="2" ry="2"><title>2025-05-15: 0</title></rect><rect x="285" y="75" width="12" height="12" fill="#ebedf0" rx="2" ry="2"><title>2025-05-16: 0</title></rect><rect x="285" y="90" width="12" height="12" fill="#ebedf0" rx="2" ry="2"><title>2025-05-17: 0</title></rect><rect x="300" y="0" width="12" height="12" fill="#ebedf0" rx="2" ry="2"><title>2025-05-18: 0</title></rect><rect x="300" y="15" width="12" height="12" fill="#ebedf0" rx="2" ry="2"><title>2025-05-19: 0</title></rect><rect x="300" y="30" width="12" height="12" fill="#ebedf0" rx="2" ry="2"><title>2025-05-20: 0</title></rect><rect x="300" y="45" width="12" height="12" fill="#ebedf0" rx="2" ry="2"><title>2025-05-21: 0</title></rect><rect x="300" y="60" width="12" height="12" fill="#ebedf0" rx="2" ry="2"><title>2025-05-22: 0</title></rect><rect x="300" y="75" width="12" height="12" fill="#ebedf0" rx="2" ry="2"><title>2025-05-23: 0</title></rect><rect x="300" y="90" width="12" height="12" fill="#ebedf0" rx="2" ry="2"><title>2025-05-24: 0</title></rect><rect x="315" y="0" width="12" height="12" fill="#ebedf0" rx="2" ry="2"><title>2025-05-25: 0</title></rect><rect x="315" y="15" width="12" height="12" fill="#40c463" rx="2" ry="2"><title>2025-05-26: 9</title></rect><rect x="315" y="30" width="12" height="12" fill="#9be9a8" rx="2" ry="2"><title>2025-05-27: 1</title></rect><rect x="315" y="45" width="12" height="12" fill="#ebedf0" rx="2" ry="2"><title>2025-05-28: 0</title></rect><rect x="315" y="60" width="12" height="12" fill="#ebedf0" rx="2" ry="2"><title>2025-05-29: 0</title></rect><rect x="315" y="75" width="12" height="12" fill="#ebedf0" rx="2" ry="2"><title>2025-05-30: 0</title></rect><rect x="315" y="90" width="12" height="12" fill="#ebedf0" rx="2" ry="2"><title>2025-05-31: 0</title></rect><rect x="330" y="0" width="12" height="12" fill="#9be9a8" rx="2" ry="2"><title>2025-06-01: 2</title></rect><rect x="330" y="15" width="12" height="12" fill="#9be9a8" rx="2" ry="2"><title>2025-06-02: 1</title></rect><rect x="330" y="30" width="12" height="12" fill="#ebedf0" rx="2" ry="2"><title>2025-06-03: 0</title></rect><rect x="330" y="45" width="12" height="12" fill="#ebedf0" rx="2" ry="2"><title>2025-06-04: 0</title></rect><rect x="330" y="60" width="12" height="12" fill="#ebedf0" rx="2" ry="2"><title>2025-06-05: 0</title></rect><rect x="330" y="75" width="12" height="12" fill="#ebedf0" rx="2" ry="2"><title>2025-06-06: 0</title></rect><rect x="330" y="90" width="12" height="12" fill="#ebedf0" rx="2" ry="2"><title>2025-06-07: 0</title></rect><rect x="345" y="0" width="12" height="12" fill="#ebedf0" rx="2" ry="2"><title>2025-06-08: 0</title></rect><rect x="345" y="15" width="12" height="12" fill="#ebedf0" rx="2" ry="2"><title>2025-06-09: 0</title></rect><rect x="345" y="30" width="12" height="12" fill="#9be9a8" rx="2" ry="2"><title>2025-06-10: 3</title></rect><rect x="345" y="45" width="12" height="12" fill="#30a14e" rx="2" ry="2"><title>2025-06-11: 14</title></rect><rect x="345" y="60" width="12" height="12" fill="#9be9a8" rx="2" ry="2"><title>2025-06-12: 3</title></rect><rect x="345" y="75" width="12" height="12" fill="#216e39" rx="2" ry="2"><title>2025-06-13: 24</title></rect><rect x="345" y="90" width="12" height="12" fill="#216e39" rx="2" ry="2"><title>2025-06-14: 36</title></rect><rect x="360" y="0" width="12" height="12" fill="#9be9a8" rx="2" ry="2"><title>2025-06-15: 1</title></rect><rect x="360" y="15" width="12" height="12" fill="#9be9a8" rx="2" ry="2"><title>2025-06-16: 1</title></rect><rect x="360" y="30" width="12" height="12" fill="#ebedf0" rx="2" ry="2"><title>2025-06-17: 0</title></rect><rect x="360" y="45" width="12" height="12" fill="#ebedf0" rx="2" ry="2"><title>2025-06-18: 0</title></rect><rect x="360" y="60" width="12" height="12" fill="#ebedf0" rx="2" ry="2"><title>2025-06-19: 0</title></rect><rect x="360" y="75" width="12" height="12" fill="#ebedf0" rx="2" ry="2"><title>2025-06-20: 0</title></rect><rect x="360" y="90" width="12" height="12" fill="#9be9a8" rx="2" ry="2"><title>2025-06-21: 1</title></rect><rect x="375" y="0" width="12" height="12" fill="#9be9a8" rx="2" ry="2"><title>2025-06-22: 1</title></rect><rect x="375" y="15" width="12" height="12" fill="#40c463" rx="2" ry="2"><title>2025-06-23: 10</title></rect><rect x="375" y="30" width="12" height="12" fill="#ebedf0" rx="2" ry="2"><title>2025-06-24: 0</title></rect><rect x="375" y="45" width="12" height="12" fill="#ebedf0" rx="2" ry="2"><title>2025-06-25: 0</title></rect><rect x="375" y="60" width="12" height="12" fill="#9be9a8" rx="2" ry="2"><title>2025-06-26: 1</title></rect><rect x="375" y="75" width="12" height="12" fill="#ebedf0" rx="2" ry="2"><title>2025-06-27: 0</title></rect><rect x="375" y="90" width="12" height="12" fill="#9be9a8" rx="2" ry="2"><title>2025-06-28: 5</title></rect><rect x="390" y="0" width="12" height="12" fill="#9be9a8" rx="2" ry="2"><title>2025-06-29: 1</title></rect><rect x="390" y="15" width="12" height="12" fill="#9be9a8" rx="2" ry="2"><title>2025-06-30: 5</title></rect><rect x="390" y="30" width="12" height="12" fill="#9be9a8" rx="2" ry="2"><title>2025-07-01: 1</title></rect><rect x="390" y="45" width="12" height="12" fill="#ebedf0" rx="2" ry="2"><title>2025-07-02: 0</title></rect><rect x="390" y="60" width="12" height="12" fill="#ebedf0" rx="2" ry="2"><title>2025-07-03: 0</title></rect><rect x="390" y="75" width="12" height="12" fill="#ebedf0" rx="2" ry="2"><title>2025-07-04: 0</title></rect><rect x="390" y="90" width="12" height="12" fill="#ebedf0" rx="2" ry="2"><title>2025-07-05: 0</title></rect><rect x="405" y="0" width="12" height="12" fill="#9be9a8" rx="2" ry="2"><title>2025-07-06: 1</title></rect><rect x="405" y="15" width="12" height="12" fill="#ebedf0" rx="2" ry="2"><title>2025-07-07: 0</title></rect><rect x="405" y="30" width="12" height="12" fill="#ebedf0" rx="2" ry="2"><title>2025-07-08: 0</title></rect><rect x="405" y="45" width="12" height="12" fill="#ebedf0" rx="2" ry="2"><title>2025-07-09: 0</title></rect><rect x="405" y="60" width="12" height="12" fill="#ebedf0" rx="2" ry="2"><title>2025-07-10: 0</title></rect><rect x="405" y="75" width="12" height="12" fill="#ebedf0" rx="2" ry="2"><title>2025-07-11: 0</title></rect><rect x="405" y="90" width="12" height="12" fill="#ebedf0" rx="2" ry="2"><title>2025-07-12: 0</title></rect><rect x="420" y="0" width="12" height="12" fill="#ebedf0" rx="2" ry="2"><title>2025-07-13: 0</title></rect><rect x="420" y="15" width="12" height="12" fill="#ebedf0" rx="2" ry="2"><title>2025-07-14: 0</title></rect><rect x="420" y="30" width="12" height="12" fill="#ebedf0" rx="2" ry="2"><title>2025-07-15: 0</title></rect><rect x="420" y="45" width="12" height="12" fill="#ebedf0" rx="2" ry="2"><title>2025-07-16: 0</title></rect><rect x="420" y="60" width="12" height="12" fill="#ebedf0" rx="2" ry="2"><title>2025-07-17: 0</title></rect><rect x="420" y="75" width="12" height="12" fill="#ebedf0" rx="2" ry="2"><title>2025-07-18: 0</title></rect><rect x="420" y="90" width="12" height="12" fill="#ebedf0" rx="2" ry="2"><title>2025-07-19: 0</title></rect><rect x="435" y="0" width="12" height="12" fill="#ebedf0" rx="2" ry="2"><title>2025-07-20: 0</title></rect><rect x="435" y="15" width="12" height="12" fill="#ebedf0" rx="2" ry="2"><title>2025-07-21: 0</title></rect><rect x="435" y="30" width="12" height="12" fill="#ebedf0" rx="2" ry="2"><title>2025-07-22: 0</title></rect><rect x="435" y="45" width="12" height="12" fill="#ebedf0" rx="2" ry="2"><title>2025-07-23: 0</title></rect><rect x="435" y="60" width="12" height="12" fill="#ebedf0" rx="2" ry="2"><title>2025-07-24: 0</title></rect><rect x="435" y="75" width="12" height="12" fill="#ebedf0" rx="2" ry="2"><title>2025-07-25: 0</title></rect><rect x="435" y="90" width="12" height="12" fill="#ebedf0" rx="2" ry="2"><title>2025-07-26: 0</title></rect><rect x="450" y="0" width="12" height="12" fill="#ebedf0" rx="2" ry="2"><title>2025-07-27: 0</title></rect><rect x="450" y="15" width="12" height="12" fill="#ebedf0" rx="2" ry="2"><title>2025-07-28: 0</title></rect><rect x="450" y="30" width="12" height="12" fill="#ebedf0" rx="2" ry="2"><title>2025-07-29: 0</title></rect><rect x="450" y="45" width="12" height="12" fill="#ebedf0" rx="2" ry="2"><title>2025-07-30: 0</title></rect><rect x="450" y="60" width="12" height="12" fill="#9be9a8" rx="2" ry="2"><title>2025-07-31: 1</title></rect><rect x="450" y="75" width="12" height="12" fill="#9be9a8" rx="2" ry="2"><title>2025-08-01: 2</title></rect><rect x="450" y="90" width="12" height="12" fill="#ebedf0" rx="2" ry="2"><title>2025-08-02: 0</title></rect><rect x="465" y="0" width="12" height="12" fill="#9be9a8" rx="2" ry="2"><title>2025-08-03: 2</title></rect><rect x="465" y="15" width="12" height="12" fill="#9be9a8" rx="2" ry="2"><title>2025-08-04: 1</title></rect><rect x="465" y="30" width="12" height="12" fill="#ebedf0" rx="2" ry="2"><title>2025-08-05: 0</title></rect><rect x="465" y="45" width="12" height="12" fill="#ebedf0" rx="2" ry="2"><title>2025-08-06: 0</title></rect><rect x="465" y="60" width="12" height="12" fill="#9be9a8" rx="2" ry="2"><title>2025-08-07: 1</title></rect><rect x="465" y="75" width="12" height="12" fill="#9be9a8" rx="2" ry="2"><title>2025-08-08: 5</title></rect><rect x="465" y="90" width="12" height="12" fill="#9be9a8" rx="2" ry="2"><title>2025-08-09: 1</title></rect><rect x="480" y="0" width="12" height="12" fill="#ebedf0" rx="2" ry="2"><title>2025-08-10: 0</title></rect><rect x="480" y="15" width="12" height="12" fill="#ebedf0" rx="2" ry="2"><title>2025-08-11: 0</title></rect><rect x="480" y="30" width="12" height="12" fill="#9be9a8" rx="2" ry="2"><title>2025-08-12: 5</title></rect><rect x="480" y="45" width="12" height="12" fill="#ebedf0" rx="2" ry="2"><title>2025-08-13: 0</title></rect><rect x="480" y="60" width="12" height="12" fill="#ebedf0" rx="2" ry="2"><title>2025-08-14: 0</title></rect><rect x="480" y="75" width="12" height="12" fill="#ebedf0" rx="2" ry="2"><title>2025-08-15: 0</title></rect><rect x="480" y="90" width="12" height="12" fill="#ebedf0" rx="2" ry="2"><title>2025-08-16: 0</title></rect><rect x="495" y="0" width="12" height="12" fill="#ebedf0" rx="2" ry="2"><title>2025-08-17: 0</title></rect><rect x="495" y="15" width="12" height="12" fill="#ebedf0" rx="2" ry="2"><title>2025-08-18: 0</title></rect><rect x="495" y="30" width="12" height="12" fill="#ebedf0" rx="2" ry="2"><title>2025-08-19: 0</title></rect><rect x="495" y="45" width="12" height="12" fill="#ebedf0" rx="2" ry="2"><title>2025-08-20: 0</title></rect><rect x="495" y="60" width="12" height="12" fill="#ebedf0" rx="2" ry="2"><title>2025-08-21: 0</title></rect><rect x="495" y="75" width="12" height="12" fill="#ebedf0" rx="2" ry="2"><title>2025-08-22: 0</title></rect><rect x="495" y="90" width="12" height="12" fill="#ebedf0" rx="2" ry="2"><title>2025-08-23: 0</title></rect><rect x="510" y="0" width="12" height="12" fill="#ebedf0" rx="2" ry="2"><title>2025-08-24: 0</title></rect><rect x="510" y="15" width="12" height="12" fill="#ebedf0" rx="2" ry="2"><title>2025-08-25: 0</title></rect><rect x="510" y="30" width="12" height="12" fill="#ebedf0" rx="2" ry="2"><title>2025-08-26: 0</title></rect><rect x="510" y="45" width="12" height="12" fill="#ebedf0" rx="2" ry="2"><title>2025-08-27: 0</title></rect><rect x="510" y="60" width="12" height="12" fill="#ebedf0" rx="2" ry="2"><title>2025-08-28: 0</title></rect><rect x="510" y="75" width="12" height="12" fill="#ebedf0" rx="2" ry="2"><title>2025-08-29: 0</title></rect><rect x="510" y="90" width="12" height="12" fill="#9be9a8" rx="2" ry="2"><title>2025-08-30: 2</title></rect><rect x="525" y="0" width="12" height="12" fill="#ebedf0" rx="2" ry="2"><title>2025-08-31: 0</title></rect><rect x="525" y="15" width="12" height="12" fill="#ebedf0" rx="2" ry="2"><title>2025-09-01: 0</title></rect><rect x="525" y="30" width="12" height="12" fill="#ebedf0" rx="2" ry="2"><title>2025-09-02: 0</title></rect><rect x="525" y="45" width="12" height="12" fill="#ebedf0" rx="2" ry="2"><title>2025-09-03: 0</title></rect><rect x="525" y="60" width="12" height="12" fill="#ebedf0" rx="2" ry="2"><title>2025-09-04: 0</title></rect><rect x="525" y="75" width="12" height="12" fill="#ebedf0" rx="2" ry="2"><title>2025-09-05: 0</title></rect><rect x="525" y="90" width="12" height="12" fill="#ebedf0" rx="2" ry="2"><title>2025-09-06: 0</title></rect><rect x="540" y="0" width="12" height="12" fill="#ebedf0" rx="2" ry="2"><title>2025-09-07: 0</title></rect><rect x="540" y="15" width="12" height="12" fill="#ebedf0" rx="2" ry="2"><title>2025-09-08: 0</title></rect><rect x="540" y="30" width="12" height="12" fill="#ebedf0" rx="2" ry="2"><title>2025-09-09: 0</title></rect><rect x="540" y="45" width="12" height="12" fill="#ebedf0" rx="2" ry="2"><title>2025-09-10: 0</title></rect><rect x="540" y="60" width="12" height="12" fill="#ebedf0" rx="2" ry="2"><title>2025-09-11: 0</title></rect><rect x="540" y="75" width="12" height="12" fill="#ebedf0" rx="2" ry="2"><title>2025-09-12: 0</title></rect><rect x="540" y="90" width="12" height="12" fill="#ebedf0" rx="2" ry="2"><title>2025-09-13: 0</title></rect><rect x="555" y="0" width="12" height="12" fill="#ebedf0" rx="2" ry="2"><title>2025-09-14: 0</title></rect><rect x="555" y="15" width="12" height="12" fill="#ebedf0" rx="2" ry="2"><title>2025-09-15: 0</title></rect><rect x="555" y="30" width="12" height="12" fill="#ebedf0" rx="2" ry="2"><title>2025-09-16: 0</title></rect><rect x="555" y="45" width="12" height="12" fill="#ebedf0" rx="2" ry="2"><title>2025-09-17: 0</title></rect><rect x="555" y="60" width="12" height="12" fill="#ebedf0" rx="2" ry="2"><title>2025-09-18: 0</title></rect><rect x="555" y="75" width="12" height="12" fill="#ebedf0" rx="2" ry="2"><title>2025-09-19: 0</title></rect><rect x="555" y="90" width="12" height="12" fill="#ebedf0" rx="2" ry="2"><title>2025-09-20: 0</title></rect><rect x="570" y="0" width="12" height="12" fill="#ebedf0" rx="2" ry="2"><title>2025-09-21: 0</title></rect><rect x="570" y="15" width="12" height="12" fill="#ebedf0" rx="2" ry="2"><title>2025-09-22: 0</title></rect><rect x="570" y="30" width="12" height="12" fill="#ebedf0" rx="2" ry="2"><title>2025-09-23: 0</title></rect><rect x="570" y="45" width="12" height="12" fill="#ebedf0" rx="2" ry="2"><title>2025-09-24: 0</title></rect><rect x="570" y="60" width="12" height="12" fill="#ebedf0" rx="2" ry="2"><title>2025-09-25: 0</title></rect><rect x="570" y="75" width="12" height="12" fill="#ebedf0" rx="2" ry="2"><title>2025-09-26: 0</title></rect><rect x="570" y="90" width="12" height="12" fill="#ebedf0" rx="2" ry="2"><title>2025-09-27: 0</title></rect><rect x="585" y="0" width="12" height="12" fill="#ebedf0" rx="2" ry="2"><title>2025-09-28: 0</title></rect><rect x="585" y="15" width="12" height="12" fill="#ebedf0" rx="2" ry="2"><title>2025-09-29: 0</title></rect><rect x="585" y="30" width="12" height="12" fill="#ebedf0" rx="2" ry="2"><title>2025-09-30: 0</title></rect><rect x="585" y="45" width="12" height="12" fill="#ebedf0" rx="2" ry="2"><title>2025-10-01: 0</title></rect><rect x="585" y="60" width="12" height="12" fill="#ebedf0" rx="2" ry="2"><title>2025-10-02: 0</title></rect><rect x="585" y="75" width="12" height="12" fill="#9be9a8" rx="2" ry="2"><title>2025-10-03: 3</title></rect><rect x="585" y="90" width="12" height="12" fill="#9be9a8" rx="2" ry="2"><title>2025-10-04: 5</title></rect><rect x="600" y="0" width="12" height="12" fill="#ebedf0" rx="2" ry="2"><title>2025-10-05: 0</title></rect><rect x="600" y="15" width="12" height="12" fill="#ebedf0" rx="2" ry="2"><title>2025-10-06: 0</title></rect><rect x="600" y="30" width="12" height="12" fill="#ebedf0" rx="2" ry="2"><title>2025-10-07: 0</title></rect><rect x="600" y="45" width="12" height="12" fill="#ebedf0" rx="2" ry="2"><title>2025-10-08: 0</title></rect><rect x="600" y="60" width="12" height="12" fill="#ebedf0" rx="2" ry="2"><title>2025-10-09: 0</title></rect><rect x="600" y="75" width="12" height="12" fill="#ebedf0" rx="2" ry="2"><title>2025-10-10: 0</title></rect><rect x="600" y="90" width="12" height="12" fill="#ebedf0" rx="2" ry="2"><title>2025-10-11: 0</title></rect><rect x="615" y="0" width="12" height="12" fill="#ebedf0" rx="2" ry="2"><title>2025-10-12: 0</title></rect><rect x="615" y="15" width="12" height="12" fill="#ebedf0" rx="2" ry="2"><title>2025-10-13: 0</title></rect><rect x="615" y="30" width="12" height="12" fill="#ebedf0" rx="2" ry="2"><title>2025-10-14: 0</title></rect><rect x="615" y="45" width="12" height="12" fill="#9be9a8" rx="2" ry="2"><title>2025-10-15: 1</title></rect><rect x="615" y="60" width="12" height="12" fill="#ebedf0" rx="2" ry="2"><title>2025-10-16: 0</title></rect><rect x="615" y="75" width="12" height="12" fill="#ebedf0" rx="2" ry="2"><title>2025-10-17: 0</title></rect><rect x="615" y="90" width="12" height="12" fill="#ebedf0" rx="2" ry="2"><title>2025-10-18: 0</title></rect><rect x="630" y="0" width="12" height="12" fill="#9be9a8" rx="2" ry="2"><title>2025-10-19: 1</title></rect><rect x="630" y="15" width="12" height="12" fill="#9be9a8" rx="2" ry="2"><title>2025-10-20: 1</title></rect><rect x="630" y="30" width="12" height="12" fill="#ebedf0" rx="2" ry="2"><title>2025-10-21: 0</title></rect><rect x="630" y="45" width="12" height="12" fill="#ebedf0" rx="2" ry="2"><title>2025-10-22: 0</title></rect><rect x="630" y="60" width="12" height="12" fill="#ebedf0" rx="2" ry="2"><title>2025-10-23: 0</title></rect><rect x="630" y="75" width="12" height="12" fill="#ebedf0" rx="2" ry="2"><title>2025-10-24: 0</title></rect><rect x="630" y="90" width="12" height="12" fill="#ebedf0" rx="2" ry="2"><title>2025-10-25: 0</title></rect><rect x="645" y="0" width="12" height="12" fill="#ebedf0" rx="2" ry="2"><title>2025-10-26: 0</title></rect><rect x="645" y="15" width="12" height="12" fill="#9be9a8" rx="2" ry="2"><title>2025-10-27: 1</title></rect><rect x="645" y="30" width="12" height="12" fill="#9be9a8" rx="2" ry="2"><title>2025-10-28: 2</title></rect><rect x="645" y="45" width="12" height="12" fill="#40c463" rx="2" ry="2"><title>2025-10-29: 10</title></rect><rect x="645" y="60" width="12" height="12" fill="#40c463" rx="2" ry="2"><title>2025-10-30: 6</title></rect><rect x="645" y="75" width="12" height="12" fill="#9be9a8" rx="2" ry="2"><title>2025-10-31: 1</title></rect><rect x="645" y="90" width="12" height="12" fill="#ebedf0" rx="2" ry="2"><title>2025-11-01: 0</title></rect><rect x="660" y="0" width="12" height="12" fill="#ebedf0" rx="2" ry="2"><title>2025-11-02: 0</title></rect><rect x="660" y="15" width="12" height="12" fill="#216e39" rx="2" ry="2"><title>2025-11-03: 19</title></rect><rect x="660" y="30" width="12" height="12" fill="#40c463" rx="2" ry="2"><title>2025-11-04: 8</title></rect><rect x="660" y="45" width="12" height="12" fill="#216e39" rx="2" ry="2"><title>2025-11-05: 21</title></rect><rect x="660" y="60" width="12" height="12" fill="#30a14e" rx="2" ry="2"><title>2025-11-06: 12</title></rect><rect x="660" y="75" width="12" height="12" fill="#ebedf0" rx="2" ry="2"><title>2025-11-07: 0</title></rect><rect x="660" y="90" width="12" height="12" fill="#ebedf0" rx="2" ry="2"><title>2025-11-08: 0</title></rect><rect x="675" y="0" width="12" height="12" fill="#ebedf0" rx="2" ry="2"><title>2025-11-09: 0</title></rect><rect x="675" y="15" width="12" height="12" fill="#40c463" rx="2" ry="2"><title>2025-11-10: 9</title></rect><rect x="675" y="30" width="12" height="12" fill="#30a14e" rx="2" ry="2"><title>2025-11-11: 11</title></rect><rect x="675" y="45" width="12" height="12" fill="#216e39" rx="2" ry="2"><title>2025-11-12: 18</title></rect><rect x="675" y="60" width="12" height="12" fill="#40c463" rx="2" ry="2"><title>2025-11-13: 8</title></rect><rect x="675" y="75" width="12" height="12" fill="#9be9a8" rx="2" ry="2"><title>2025-11-14: 1</title></rect><rect x="675" y="90" width="12" height="12" fill="#ebedf0" rx="2" ry="2"><title>2025-11-15: 0</title></rect><rect x="690" y="0" width="12" height="12" fill="#ebedf0" rx="2" ry="2"><title>2025-11-16: 0</title></rect><rect x="690" y="15" width="12" height="12" fill="#9be9a8" rx="2" ry="2"><title>2025-11-17: 4</title></rect><rect x="690" y="30" width="12" height="12" fill="#9be9a8" rx="2" ry="2"><title>2025-11-18: 2</title></rect><rect x="690" y="45" width="12" height="12" fill="#9be9a8" rx="2" ry="2"><title>2025-11-19: 2</title></rect><rect x="690" y="60" width="12" height="12" fill="#40c463" rx="2" ry="2"><title>2025-11-20: 6</title></rect><rect x="690" y="75" width="12" height="12" fill="#9be9a8" rx="2" ry="2"><title>2025-11-21: 2</title></rect><rect x="690" y="90" width="12" height="12" fill="#ebedf0" rx="2" ry="2"><title>2025-11-22: 0</title></rect><rect x="705" y="0" width="12" height="12" fill="#ebedf0" rx="2" ry="2"><title>2025-11-23: 0</title></rect><rect x="705" y="15" width="12" height="12" fill="#9be9a8" rx="2" ry="2"><title>2025-11-24: 1</title></rect><rect x="705" y="30" width="12" height="12" fill="#216e39" rx="2" ry="2"><title>2025-11-25: 18</title></rect><rect x="705" y="45" width="12" height="12" fill="#9be9a8" rx="2" ry="2"><title>2025-11-26: 5</title></rect><rect x="705" y="60" width="12" height="12" fill="#ebedf0" rx="2" ry="2"><title>2025-11-27: 0</title></rect><rect x="705" y="75" width="12" height="12" fill="#ebedf0" rx="2" ry="2"><title>2025-11-28: 0</title></rect><rect x="705" y="90" width="12" height="12" fill="#ebedf0" rx="2" ry="2"><title>2025-11-29: 0</title></rect><rect x="720" y="0" width="12" height="12" fill="#ebedf0" rx="2" ry="2"><title>2025-11-30: 0</title></rect><rect x="720" y="15" width="12" height="12" fill="#ebedf0" rx="2" ry="2"><title>2025-12-01: 0</title></rect><rect x="720" y="30" width="12" height="12" fill="#ebedf0" rx="2" ry="2"><title>2025-12-02: 0</title></rect><rect x="720" y="45" width="12" height="12" fill="#ebedf0" rx="2" ry="2"><title>2025-12-03: 0</title></rect><rect x="720" y="60" width="12" height="12" fill="#9be9a8" rx="2" ry="2"><title>2025-12-04: 5</title></rect><rect x="720" y="75" width="12" height="12" fill="#9be9a8" rx="2" ry="2"><title>2025-12-05: 5</title></rect><rect x="720" y="90" width="12" height="12" fill="#ebedf0" rx="2" ry="2"><title>2025-12-06: 0</title></rect><rect x="735" y="0" width="12" height="12" fill="#ebedf0" rx="2" ry="2"><title>2025-12-07: 0</title></rect><rect x="735" y="15" width="12" height="12" fill="#9be9a8" rx="2" ry="2"><title>2025-12-08: 1</title></rect><rect x="735" y="30" width="12" height="12" fill="#ebedf0" rx="2" ry="2"><title>2025-12-09: 0</title></rect><rect x="735" y="45" width="12" height="12" fill="#ebedf0" rx="2" ry="2"><title>2025-12-10: 0</title></rect><rect x="735" y="60" width="12" height="12" fill="#9be9a8" rx="2" ry="2"><title>2025-12-11: 1</title></rect><rect x="735" y="75" width="12" height="12" fill="#216e39" rx="2" ry="2"><title>2025-12-12: 22</title></rect><rect x="735" y="90" width="12" height="12" fill="#ebedf0" rx="2" ry="2"><title>2025-12-13: 0</title></rect><rect x="750" y="0" width="12" height="12" fill="#ebedf0" rx="2" ry="2"><title>2025-12-14: 0</title></rect><rect x="750" y="15" width="12" height="12" fill="#30a14e" rx="2" ry="2"><title>2025-12-15: 14</title></rect><rect x="750" y="30" width="12" height="12" fill="#216e39" rx="2" ry="2"><title>2025-12-16: 26</title></rect><rect x="750" y="45" width="12" height="12" fill="#30a14e" rx="2" ry="2"><title>2025-12-17: 12</title></rect><rect x="750" y="60" width="12" height="12" fill="#216e39" rx="2" ry="2"><title>2025-12-18: 16</title></rect><rect x="750" y="75" width="12" height="12" fill="#216e39" rx="2" ry="2"><title>2025-12-19: 23</title></rect><rect x="750" y="90" width="12" height="12" fill="#9be9a8" rx="2" ry="2"><title>2025-12-20: 1</title></rect><rect x="765" y="0" width="12" height="12" fill="#ebedf0" rx="2" ry="2"><title>2025-12-21: 0</title></rect><rect x="765" y="15" width="12" height="12" fill="#ebedf0" rx="2" ry="2"><title>2025-12-22: 0</title></rect><rect x="765" y="30" width="12" height="12" fill="#ebedf0" rx="2" ry="2"><title>2025-12-23: 0</title></rect><rect x="765" y="45" width="12" height="12" fill="#9be9a8" rx="2" ry="2"><title>2025-12-24: 2</title></rect><rect x="765" y="60" width="12" height="12" fill="#ebedf0" rx="2" ry="2"><title>2025-12-25: 0</title></rect><rect x="765" y="75" width="12" height="12" fill="#9be9a8" rx="2" ry="2"><title>2025-12-26: 3</title></rect><rect x="765" y="90" width="12" height="12" fill="#ebedf0" rx="2" ry="2"><title>2025-12-27: 0</title></rect><rect x="780" y="0" width="12" height="12" fill="#ebedf0" rx="2" ry="2"><title>2025-12-28: 0</title></rect><rect x="780" y="15" width="12" height="12" fill="#ebedf0" rx="2" ry="2"><title>2025-12-29: 0</title></rect><rect x="780" y="30" width="12" height="12" fill="#30a14e" rx="2" ry="2"><title>2025-12-30: 13</title></rect><rect x="780" y="45" width="12" height="12" fill="#30a14e" rx="2" ry="2"><title>2025-12-31: 13</title></rect><rect x="780" y="60" width="12" height="12" fill="#ebedf0" rx="2" ry="2"><title>2026-01-01: 0</title></rect><rect x="780" y="75" width="12" height="12" fill="#9be9a8" rx="2" ry="2"><title>2026-01-02: 1</title></rect></svg>